<svg 
          width="13.5625" 
          height="17.0625" fill="none" 
          xmlns="http://www.w3.org/2000/svg">
          <path d="M 6.78125 3.5 C 4.9717501401901245 3.5 3.5 4.9717501401901245 3.5 6.78125 C 3.5 8.590749859809875 4.9717501401901245 10.0625 6.78125 10.0625 C 8.590749859809875 10.0625 10.0625 8.590749859809875 10.0625 6.78125 C 10.0625 4.9717501401901245 8.590749859809875 3.5 6.78125 3.5 Z M 6.78125 8.75 C 5.695374846458435 8.75 4.8125 7.867125153541565 4.8125 6.78125 C 4.8125 5.695374846458435 5.695374846458435 4.8125 6.78125 4.8125 C 7.867125153541565 4.8125 8.75 5.695374846458435 8.75 6.78125 C 8.75 7.867125153541565 7.867125153541565 8.75 6.78125 8.75 Z M 6.777751922607422 0 C 2.913752019405365 0 0 2.9154998064041138 0 6.78125 C 0 12.213250160217285 4.143996715545654 15.59770679473877 5.92462158203125 16.799957275390625 C 6.18362158536911 16.974957942962646 6.480251789093018 17.0625 6.777751922607422 17.0625 C 7.07350218296051 17.0625 7.370120286941528 16.975043058395386 7.629119873046875 16.800918579101562 C 9.413244485855103 15.59604287147522 13.5625 12.20714521408081 13.5625 6.7803955078125 C 13.5625 2.9146453142166138 10.646126508712769 0 6.777751922607422 0 Z M 6.8950042724609375 15.7132568359375 C 6.822379112243652 15.762256622314453 6.732243537902832 15.762256622314453 6.659618377685547 15.7132568359375 C 5.4048683643341064 14.866256475448608 1.3125 11.71887469291687 1.3125 6.78125 C 1.3125 3.6636252403259277 3.6618770360946655 1.3125 6.777751922607422 1.3125 C 9.897127389907837 1.3125 12.25 3.6636252403259277 12.25 6.78125 C 12.25 11.578874826431274 8.505004405975342 14.626506328582764 6.8950042724609375 15.7132568359375 Z" fill="rgb(101.00000157952309,101.00000157952309,101.00000157952309)"/>
        </svg>